# xmcd CD database file
#
# Track frame offsets:
#	222
#	17742
#	40665
#	61847
#	93280
#	113940
#	135727
#	160882
#
# Disc length: 2523 seconds
#
# Revision: 0
# Processed by: cddbd v1.4PL0 Copyright (c) Steve Scherf et al.
# Submitted via: CDex 1.40Release
#
DISCID=5e09d908
DTITLE=Sonia és a sápadtarcúak - Happy Blues News
DYEAR=1900
DGENRE=Blues
TTITLE0=I Want to See You
TTITLE1=In a Strange Land
TTITLE2=Happy Blues News
TTITLE3=All is Loneliness
TTITLE4=Hold on
TTITLE5=The Spanish Soldier
TTITLE6=Malas Costumbres (Evil Ways)
TTITLE7=Nowhere I'm Home
EXTD=ID3G: 0
EXTT0=
EXTT1=
EXTT2=
EXTT3=
EXTT4=
EXTT5=
EXTT6=
EXTT7=
PLAYORDER=
